<svg width="54" height="55" viewBox="0 0 54 55" fill="none" xmlns="http://www.w3.org/2000/svg">
<g clip-path="url(#clip0_1901_1072)">
<path d="M43.6249 9.76324H10.3047V40.0662H43.6272V9.76324H43.6249Z" fill="white"/>
<path fill-rule="evenodd" clip-rule="evenodd" d="M53.9456 27.5C53.9456 42.3928 41.8721 54.464 26.9816 54.464C12.0888 54.464 0.0175781 42.3928 0.0175781 27.5C0.0175781 12.6073 12.0888 0.536011 26.9816 0.536011C41.8721 0.536011 53.9456 12.6073 53.9456 27.5ZM19.3406 38.2303H14.1071C13.0068 38.2303 12.4646 38.2303 12.1338 38.0188C11.9588 37.905 11.813 37.7516 11.7082 37.571C11.6034 37.3904 11.5427 37.1877 11.5308 36.9793C11.5106 36.5878 11.7828 36.1108 12.3251 35.1568L25.2468 12.3823C25.7958 11.4148 26.0748 10.931 26.4258 10.7533C26.6127 10.6586 26.8193 10.6092 27.0288 10.6092C27.2383 10.6092 27.4449 10.6586 27.6318 10.7533C27.9828 10.9333 28.2618 11.4148 28.8108 12.3823L31.4658 17.0173L31.4793 17.042C32.0733 18.0793 32.3748 18.6058 32.5076 19.157C32.6516 19.7628 32.6516 20.394 32.5076 20.9998C32.3726 21.5555 32.0756 22.0865 31.4726 23.1395L24.6866 35.1365L24.6686 35.168C24.0701 36.2143 23.7686 36.743 23.3478 37.1435C22.8935 37.5783 22.342 37.8984 21.7391 38.0773C21.1878 38.2303 20.5736 38.2303 19.3406 38.2303V38.2303ZM32.5548 38.2303H40.0541C41.1588 38.2303 41.7168 38.2303 42.0476 38.012C42.2238 37.8979 42.3703 37.7435 42.4752 37.5616C42.58 37.3797 42.6401 37.1755 42.6506 36.9658C42.6708 36.5878 42.4031 36.1288 41.8833 35.231C41.8652 35.1996 41.8472 35.1681 41.8293 35.1365L38.0718 28.7128L38.0313 28.6385C37.5026 27.7475 37.2371 27.2953 36.8951 27.122C36.7094 27.0272 36.5039 26.9778 36.2955 26.9778C36.087 26.9778 35.8815 27.0272 35.6958 27.122C35.3516 27.302 35.0726 27.77 34.5236 28.7195L30.7796 35.1433L30.7683 35.1658C30.2193 36.1108 29.9448 36.5833 29.9651 36.9725C29.9769 37.1819 30.0377 37.3855 30.1424 37.5672C30.2471 37.7489 30.3929 37.9035 30.5681 38.0188C30.8921 38.2303 31.4501 38.2303 32.5548 38.2303V38.2303Z" fill="#E84142"/>
</g>
<defs>
<clipPath id="clip0_1901_1072">
<rect width="54" height="54" fill="white" transform="translate(0 0.5)"/>
</clipPath>
</defs>
</svg>
