<?xml version="1.0" encoding="utf-8"?>
<!-- Generator: Adobe Illustrator 22.1.0, SVG Export Plug-In . SVG Version: 6.00 Build 0)  -->
<svg version="1.1" id="Слой_1" xmlns="http://www.w3.org/2000/svg" xmlns:xlink="http://www.w3.org/1999/xlink" x="0px" y="0px"
	 viewBox="0 0 54 56.5" style="enable-background:new 0 0 54 56.5;" xml:space="preserve">
<style type="text/css">
	.st0{fill:#1C1C1C;}
	.st1{fill:#F1BD11;}
</style>
<circle class="st0" cx="27" cy="29.5" r="27"/>
<path class="st1" d="M27,15.2l9.5,9.5l-3.2,3.2L27,21.5l-6.4,6.4l-3.2-3.2L27,15.2L27,15.2L27,15.2z M20.6,31.1l6.4,6.4l6.4-6.4
	l3.2,3.2l-6.4,6.4l0,0L27,43.8l0,0l0,0l-3.2-3.2l0,0l-6.4-6.4L20.6,31.1z M19,29.5l-3.2-3.2l-3.2,3.2l3.2,3.2L19,29.5z M27,26.3
	l3.2,3.2L27,32.7l-3.2-3.2L27,26.3z M41.3,29.5l-3.2-3.2L35,29.5l3.2,3.2L41.3,29.5z"/>
</svg>
