<svg width="22" height="22" viewBox="0 0 22 22" fill="none" xmlns="http://www.w3.org/2000/svg">
<path d="M0 11C0 4.92487 4.92487 0 11 0C17.0751 0 22 4.92487 22 11C22 17.0751 17.0751 22 11 22C4.92487 22 0 17.0751 0 11Z" fill="#F3BA2F"/>
<path d="M8.55269 9.99484L10.9996 7.54798L13.4478 9.9961L14.8716 8.5723L10.9996 4.7002L7.12895 8.57104L8.55269 9.99484ZM4.69971 11L6.12355 9.57616L7.5473 10.9999L6.12347 12.4237L4.69971 11ZM8.55269 12.0056L10.9996 14.4524L13.4477 12.0044L14.8723 13.4274L10.9996 17.3002L7.12681 13.4275L8.55269 12.0056ZM14.4522 11.0008L15.876 9.57694L17.2997 11.0007L15.8759 12.4245L14.4522 11.0008Z" fill="white"/>
<path d="M12.444 10.9992L10.9998 9.55447L9.55637 10.998L9.55436 10.9999L9.55637 11.002L10.9998 12.4455L12.4446 11.0008L12.444 10.9992Z" fill="white"/>
</svg>
