<svg width="20" height="21" viewBox="0 0 20 21" fill="none" xmlns="http://www.w3.org/2000/svg">
<path d="M0 10.5C0 4.97715 4.47715 0.5 10 0.5C15.5228 0.5 20 4.97715 20 10.5C20 16.0228 15.5228 20.5 10 20.5C4.47715 20.5 0 16.0228 0 10.5Z" fill="#F0B90B"/>
<path d="M9.99999 3.5L11.7344 5.27083L7.36711 9.625L5.63274 7.89583L9.99999 3.5Z" fill="black"/>
<path d="M12.6327 6.12505L14.3671 7.89589L7.36696 14.8751L5.63259 13.1459L12.6327 6.12505Z" fill="black"/>
<path d="M4.73436 8.75L6.46873 10.5208L4.73436 12.25L3 10.5208L4.73436 8.75Z" fill="black"/>
<path d="M15.2657 8.75L17.0001 10.5208L9.99993 17.5L8.26557 15.7708L15.2657 8.75Z" fill="black"/>
</svg>
