<svg width="32" height="32" viewBox="0 0 32 32" fill="none" xmlns="http://www.w3.org/2000/svg">
<path fill-rule="evenodd" clip-rule="evenodd" d="M16 32C24.8366 32 32 24.8366 32 16C32 7.16344 24.8366 0 16 0C7.16344 0 0 7.16344 0 16C0 24.8366 7.16344 32 16 32ZM15.9999 30.72C24.1296 30.72 30.7199 24.1296 30.7199 16C30.7199 7.87036 24.1296 1.27999 15.9999 1.27999C7.87032 1.27999 1.27995 7.87036 1.27995 16C1.27995 24.1296 7.87032 30.72 15.9999 30.72Z" fill="#423A4F"/>
<circle cx="16" cy="16" r="14.72" fill="#FBFBFB"/>
<path fill-rule="evenodd" clip-rule="evenodd" d="M16.0001 29.68C19.4677 29.68 22.634 28.3898 25.0451 26.2632L24.1947 25.4129C22.0023 27.3231 19.1363 28.48 16.0001 28.48C12.8231 28.48 9.92335 27.2929 7.72027 25.338L6.87035 26.1879C9.29176 28.3593 12.4917 29.68 16.0001 29.68ZM5.85002 25.1718L6.69973 24.3221C4.72246 22.1139 3.52007 19.1973 3.52007 16C3.52007 12.8637 4.67692 9.99771 6.58718 7.80532L5.73681 6.95495C3.61027 9.36605 2.32007 12.5323 2.32007 16C2.32007 19.5287 3.65615 22.7454 5.85002 25.1718ZM29.6801 16C29.6801 19.5695 28.313 22.8196 26.0738 25.2555L25.2244 24.4061C27.2468 22.1881 28.4801 19.2381 28.4801 16C28.4801 12.823 27.2929 9.92325 25.3381 7.72017L26.1873 6.87102L25.169 5.85278L24.3222 6.69964C22.114 4.72237 19.1974 3.51998 16.0001 3.51998C12.762 3.51998 9.8119 4.7532 7.59392 6.7756L6.74457 5.92624C9.18041 3.68707 12.4306 2.31998 16.0001 2.31998C23.5553 2.31998 29.6801 8.44472 29.6801 16Z" fill="#423A4F"/>
<path fill-rule="evenodd" clip-rule="evenodd" d="M13.455 7.94398C13.4468 7.96598 13.4364 8.53118 13.432 9.19998L13.424 10.416L11.8896 10.4243C10.711 10.4307 10.3495 10.4418 10.3301 10.4723C10.3163 10.4941 10.3047 10.8602 10.3044 11.2858L10.304 12.0596L11.016 12.0698C11.8324 12.0815 11.9475 12.1129 12.1511 12.3796C12.3259 12.6085 12.3216 12.5057 12.3125 16.3094L12.304 19.856L12.2244 19.9735C12.0752 20.1941 12.0283 20.2067 11.3122 20.2185C10.6024 20.2301 10.6033 20.2298 10.5757 20.4426C10.5625 20.5408 10.5468 20.6386 10.5288 20.736C10.5138 20.8152 10.4853 20.9808 10.4657 21.104C10.4461 21.2272 10.4041 21.4829 10.3724 21.6721C10.3408 21.8614 10.322 22.0234 10.3308 22.0321C10.3395 22.0409 11.0352 22.048 11.8769 22.048H13.4072L13.4156 23.336L13.424 24.624H14.928L14.944 23.376L14.96 22.128L15.5756 22.1193L16.1912 22.1106L16.1996 23.3673L16.208 24.624H17.712L17.728 23.3614L17.744 22.0989L17.824 22.0766C17.868 22.0644 17.9832 22.0528 18.08 22.0509C18.6797 22.0392 19.8505 21.8095 20.368 21.6021C21.6546 21.0865 22.2632 20.2178 22.4025 18.6984C22.5407 17.1907 21.8948 16.1882 20.496 15.7394C20.1903 15.6413 20.1908 15.6483 20.4781 15.4592C21.007 15.1111 21.3065 14.6714 21.4671 14.0075C21.5102 13.8291 21.5168 12.948 21.476 12.8128C21.4605 12.7617 21.4302 12.6408 21.4086 12.544C21.2065 11.6398 20.2883 10.8937 19.0404 10.6195C18.7458 10.5548 18.289 10.4784 17.952 10.4373L17.776 10.416L17.76 9.16798L17.744 7.91998L16.9844 7.91142L16.2248 7.90286L16.2164 9.12742L16.208 10.352H14.992L14.9836 9.12798L14.9752 7.90398H14.2226C13.6498 7.90398 13.4664 7.9135 13.455 7.94398M16.4904 12.1932C17.5264 12.2814 18.0996 12.5224 18.4289 13.008C18.6005 13.2611 18.6814 13.9466 18.568 14.1872C18.546 14.2338 18.5101 14.3116 18.4884 14.36C18.372 14.6185 17.8569 14.9873 17.472 15.0875L17.28 15.1376C16.867 15.2456 15.4399 15.3421 15.1264 15.2833L15.0073 15.2609L15.0156 13.7345L15.024 12.208L15.2 12.1892C15.5031 12.1569 16.0852 12.1586 16.4904 12.1932M16.864 16.8485C18.7068 17.0233 19.439 17.586 19.3246 18.7389C19.2231 19.7624 17.8983 20.2954 15.568 20.2505L15.024 20.24V16.848L15.216 16.8293C15.5912 16.7929 16.3752 16.8021 16.864 16.8485Z" fill="#EB9444"/>
</svg>
