<svg width="31" height="30" viewBox="0 0 31 30" fill="none" xmlns="http://www.w3.org/2000/svg">
<rect width="30.2625" height="30" rx="15" fill="#4112A2"/>
<path d="M22.2468 11.0126C19.7952 6.75755 14.3368 5.30078 10.0831 7.75318C8.01917 8.94794 6.55241 10.8658 5.93427 13.161C5.31613 15.4562 5.63044 17.8562 6.82481 19.9209C8.46968 22.7715 11.4766 24.375 14.5568 24.375C16.0654 24.375 17.5951 23.9872 18.999 23.1802C23.2421 20.7278 24.6984 15.2676 22.2468 11.0126ZM13.0376 16.3471C11.8852 14.3453 9.71644 13.2763 7.50581 13.4859C7.53724 13.465 7.55819 13.4545 7.58962 13.4335C10.0936 11.9872 13.2995 12.8466 14.7454 15.3514C16.1912 17.8562 15.3321 21.0632 12.8281 22.5095C12.8071 22.52 12.7862 22.5305 12.7547 22.5514C14.0434 20.7383 14.1796 18.3174 13.0376 16.3471ZM15.6359 22.0903C17.2389 19.9733 17.5217 17.0073 16.1074 14.5654C14.693 12.113 11.969 10.8763 9.32879 11.2222C10.7641 10.4257 12.409 10.2265 14.0015 10.6458C15.6254 11.0755 16.9769 12.1235 17.8151 13.5803C19.5228 16.5357 18.5485 20.3191 15.6359 22.0903ZM8.17633 19.1348C7.4639 17.8982 7.12863 16.5147 7.20197 15.1209C8.96209 14.754 10.7641 15.5401 11.6756 17.1331C12.5766 18.7051 12.3776 20.665 11.1937 21.996C9.97836 21.3776 8.92019 20.403 8.17633 19.1348ZM18.5066 21.6292C20.4658 19.1768 20.8429 15.6658 19.1771 12.7837C18.1294 10.9706 16.4321 9.6606 14.4101 9.12611C13.331 8.83266 12.2309 8.78026 11.1727 8.94794C12.2414 8.39248 13.3938 8.13048 14.5253 8.13048C17.0608 8.13048 19.5333 9.451 20.8848 11.7986C22.844 15.1942 21.7649 19.5331 18.5066 21.6292Z" fill="white"/>
</svg>
